<?xml version="1.0" standalone="yes"?>
<svg width="32" height="32">
<path style="fill:#010101; stroke:none;" d="M0 0L0 32L32 32L32 0L0 0z"/>
<path style="fill:#fbfbfb; stroke:none;" d="M15.0394 1.96682C-6.17223 8.52706 4.69187 37.8586 24.8519 29.392C28.5119 27.8548 27.2511 24.2373 27.8295 21.1698C28.3477 18.4213 30.4043 16.1773 29.6628 13.2091C28.6968 9.34222 19.1413 0.698189 15.0394 1.96682z"/>
<path style="fill:#454542; stroke:none;" d="M18.6667 1.33333L19.3333 1.66667L18.6667 1.33333z"/>
<path style="fill:#83837f; stroke:none;" d="M13 2L14 3L13 2M20 2L21 3L20 2z"/>
<path style="fill:#b766ca; stroke:none;" d="M12 5L12 6L18 3L12 5z"/>
<path style="fill:#5c5c59; stroke:none;" d="M21 3L22 4L21 3z"/>
<path style="fill:#605eba; stroke:none;" d="M3 15L21 5C14.7853 4.33394 5.87466 9.50039 3 15z"/>
<path style="fill:#60605e; stroke:none;" d="M10 5L11 6L10 5z"/>
<path style="fill:#777775; stroke:none;" d="M22 5L23 6L22 5z"/>
<path style="fill:#af93c5; stroke:none;" d="M11.3333 6.66667L11.6667 7.33333L11.3333 6.66667z"/>
<path style="fill:#433059; stroke:none;" d="M12.6667 6.33333L13.3333 6.66667L12.6667 6.33333z"/>
<path style="fill:#0c0d0e; stroke:none;" d="M19.6667 6.33333L20.3333 6.66667L19.6667 6.33333z"/>
<path style="fill:#6196db; stroke:none;" d="M3 17L22 10L22 8L21 7C15.2199 8.65411 6.51874 11.9905 3 17z"/>
<path style="fill:#5f5e59; stroke:none;" d="M23 7L24 8L23 7z"/>
<path style="fill:#7b7b77; stroke:none;" d="M8 8L9 9L8 8z"/>
<path style="fill:#6c6b69; stroke:none;" d="M24 8L25 9L24 8z"/>
<path style="fill:#6fbfe7; stroke:none;" d="M3 18C11.4358 21.2197 19.742 14.2378 28 13C20.6896 7.83048 9.75866 13.7269 3 18z"/>
<path style="fill:#636360; stroke:none;" d="M28 10L29 11L28 10z"/>
<path style="fill:#babab9; stroke:none;" d="M1 13L1 18L2 18L1 13z"/>
<path style="fill:#6ed387; stroke:none;" d="M7 19L8 24C13.8661 22.3956 27.0133 19.0453 29 13L7 19z"/>
<path style="fill:#b0afad; stroke:none;" d="M30 13L30 17L31 17L30 13z"/>
<path style="fill:#92e46f; stroke:none;" d="M8 26L27 18C21.7483 16.4513 10.9453 21.5419 8 26z"/>
<path style="fill:#7f7f7b; stroke:none;" d="M2 19L3 20L2 19z"/>
<path style="fill:#bdf370; stroke:none;" d="M14 23L14 24L25 20L14 23z"/>
<path style="fill:#5b5b58; stroke:none;" d="M27 19L28 20L27 19z"/>
<path style="fill:#74746f; stroke:none;" d="M3 20L4 21L3 20z"/>
<path style="fill:#eff96d; stroke:none;" d="M24 20L8 26C11.3078 30.5119 25.2647 25.389 24 20z"/>
<path style="fill:#8c8b87; stroke:none;" d="M5 21L6 22L5 21z"/>
<path style="fill:#cfcfcd; stroke:none;" d="M6 22L6 27L7 27L6 22z"/>
<path style="fill:#6e6e6a; stroke:none;" d="M27 22L28 23L27 22z"/>
<path style="fill:#fba058; stroke:none;" d="M19 26C22.3727 29.332 25.5659 28.5362 27 24L19 26z"/>
<path style="fill:#6d6c67; stroke:none;" d="M28 24L28 27L29 27L28 24z"/>
<path style="fill:#504f4a; stroke:none;" d="M16.6667 28.3333L17.3333 28.6667L16.6667 28.3333z"/>
<path style="fill:#898985; stroke:none;" d="M7 29L8 30L7 29z"/>
<path style="fill:#757572; stroke:none;" d="M8 30L9 31L8 30z"/>
<path style="fill:#c1c0bc; stroke:none;" d="M20 30L20 31L23 31L20 30z"/>
<path style="fill:#424140; stroke:none;" d="M23.6667 30.3333L24.3333 30.6667L23.6667 30.3333z"/>
</svg>
